<mxfile host="app.diagrams.net" modified="2022-12-02T08:09:18.483Z" agent="5.0 (Windows NT 10.0; Win64; x64) AppleWebKit/537.36 (KHTML, like Gecko) Chrome/108.0.0.0 Safari/537.36" etag="yMQknKLsceBK0dSdMMbg" version="20.6.0" type="github">
  <diagram id="anX1heDQR3pZWfZQjRBe" name="페이지-1">
    <mxGraphModel dx="2374" dy="1149" grid="1" gridSize="10" guides="1" tooltips="1" connect="1" arrows="1" fold="1" page="1" pageScale="1" pageWidth="827" pageHeight="1169" math="0" shadow="0">
      <root>
        <mxCell id="0" />
        <mxCell id="1" parent="0" />
        <mxCell id="EzxVzveiI16b7jW3P2lI-17" style="edgeStyle=orthogonalEdgeStyle;rounded=0;orthogonalLoop=1;jettySize=auto;html=1;entryX=0.5;entryY=0;entryDx=0;entryDy=0;" parent="1" source="EzxVzveiI16b7jW3P2lI-1" target="EzxVzveiI16b7jW3P2lI-4" edge="1">
          <mxGeometry relative="1" as="geometry" />
        </mxCell>
        <mxCell id="EzxVzveiI16b7jW3P2lI-1" value="서버 시작" style="rounded=1;whiteSpace=wrap;html=1;arcSize=50;" parent="1" vertex="1">
          <mxGeometry x="80" y="110" width="120" height="30" as="geometry" />
        </mxCell>
        <mxCell id="hrOgbt3VgtR2BdMKw8dI-1" style="edgeStyle=orthogonalEdgeStyle;rounded=0;orthogonalLoop=1;jettySize=auto;html=1;entryX=0.5;entryY=0;entryDx=0;entryDy=0;" edge="1" parent="1" source="EzxVzveiI16b7jW3P2lI-2" target="EzxVzveiI16b7jW3P2lI-48">
          <mxGeometry relative="1" as="geometry" />
        </mxCell>
        <mxCell id="EzxVzveiI16b7jW3P2lI-2" value="클라이언트 시작" style="rounded=1;whiteSpace=wrap;html=1;arcSize=50;" parent="1" vertex="1">
          <mxGeometry x="960" y="110" width="120" height="30" as="geometry" />
        </mxCell>
        <mxCell id="EzxVzveiI16b7jW3P2lI-18" style="edgeStyle=orthogonalEdgeStyle;rounded=0;orthogonalLoop=1;jettySize=auto;html=1;entryX=0.5;entryY=0;entryDx=0;entryDy=0;" parent="1" source="EzxVzveiI16b7jW3P2lI-4" target="EzxVzveiI16b7jW3P2lI-5" edge="1">
          <mxGeometry relative="1" as="geometry" />
        </mxCell>
        <mxCell id="EzxVzveiI16b7jW3P2lI-4" value="클라이언트 요청 기다림&lt;br&gt;accept()" style="rounded=1;whiteSpace=wrap;html=1;" parent="1" vertex="1">
          <mxGeometry x="55" y="200" width="170" height="60" as="geometry" />
        </mxCell>
        <mxCell id="EzxVzveiI16b7jW3P2lI-19" style="edgeStyle=orthogonalEdgeStyle;rounded=0;orthogonalLoop=1;jettySize=auto;html=1;" parent="1" source="EzxVzveiI16b7jW3P2lI-5" target="EzxVzveiI16b7jW3P2lI-6" edge="1">
          <mxGeometry relative="1" as="geometry" />
        </mxCell>
        <mxCell id="EzxVzveiI16b7jW3P2lI-5" value="~/backup 디렉토리&lt;br&gt;&amp;nbsp;하위 파일들 탐색 후 &lt;br&gt;파일정보를 Map에 저장" style="rounded=1;whiteSpace=wrap;html=1;" parent="1" vertex="1">
          <mxGeometry x="55" y="300" width="170" height="60" as="geometry" />
        </mxCell>
        <mxCell id="EzxVzveiI16b7jW3P2lI-20" style="edgeStyle=orthogonalEdgeStyle;rounded=0;orthogonalLoop=1;jettySize=auto;html=1;" parent="1" source="EzxVzveiI16b7jW3P2lI-6" target="EzxVzveiI16b7jW3P2lI-7" edge="1">
          <mxGeometry relative="1" as="geometry" />
        </mxCell>
        <mxCell id="EzxVzveiI16b7jW3P2lI-6" value="탐색한 파일 정보를 &lt;br&gt;클라이언트에게 송신" style="rounded=1;whiteSpace=wrap;html=1;" parent="1" vertex="1">
          <mxGeometry x="55" y="390" width="170" height="60" as="geometry" />
        </mxCell>
        <mxCell id="EzxVzveiI16b7jW3P2lI-21" style="edgeStyle=orthogonalEdgeStyle;rounded=0;orthogonalLoop=1;jettySize=auto;html=1;entryX=0.5;entryY=0;entryDx=0;entryDy=0;" parent="1" source="EzxVzveiI16b7jW3P2lI-7" target="EzxVzveiI16b7jW3P2lI-9" edge="1">
          <mxGeometry relative="1" as="geometry" />
        </mxCell>
        <mxCell id="EzxVzveiI16b7jW3P2lI-22" style="edgeStyle=orthogonalEdgeStyle;rounded=1;orthogonalLoop=1;jettySize=auto;html=1;entryX=0;entryY=0.5;entryDx=0;entryDy=0;" parent="1" source="EzxVzveiI16b7jW3P2lI-7" target="EzxVzveiI16b7jW3P2lI-8" edge="1">
          <mxGeometry relative="1" as="geometry">
            <Array as="points">
              <mxPoint x="140" y="570" />
              <mxPoint x="270" y="570" />
            </Array>
          </mxGeometry>
        </mxCell>
        <mxCell id="EzxVzveiI16b7jW3P2lI-7" value="클라이언트의 &lt;br&gt;파일 정보를 수신" style="rounded=1;whiteSpace=wrap;html=1;" parent="1" vertex="1">
          <mxGeometry x="55" y="490" width="170" height="60" as="geometry" />
        </mxCell>
        <mxCell id="EzxVzveiI16b7jW3P2lI-23" style="edgeStyle=orthogonalEdgeStyle;rounded=0;orthogonalLoop=1;jettySize=auto;html=1;entryX=0.5;entryY=0;entryDx=0;entryDy=0;" parent="1" source="EzxVzveiI16b7jW3P2lI-8" target="EzxVzveiI16b7jW3P2lI-13" edge="1">
          <mxGeometry relative="1" as="geometry" />
        </mxCell>
        <mxCell id="EzxVzveiI16b7jW3P2lI-108" style="edgeStyle=orthogonalEdgeStyle;rounded=1;orthogonalLoop=1;jettySize=auto;html=1;entryX=1;entryY=0.5;entryDx=0;entryDy=0;dashed=1;" parent="1" source="EzxVzveiI16b7jW3P2lI-8" target="EzxVzveiI16b7jW3P2lI-105" edge="1">
          <mxGeometry relative="1" as="geometry">
            <Array as="points">
              <mxPoint x="395" y="620" />
              <mxPoint x="290" y="620" />
              <mxPoint x="290" y="701" />
              <mxPoint x="270" y="701" />
            </Array>
          </mxGeometry>
        </mxCell>
        <mxCell id="EzxVzveiI16b7jW3P2lI-8" value="클라이언트로 부터&lt;br&gt;추가, 변경, 삭제&lt;br&gt;요청 감지" style="rounded=1;whiteSpace=wrap;html=1;" parent="1" vertex="1">
          <mxGeometry x="310" y="540" width="170" height="60" as="geometry" />
        </mxCell>
        <mxCell id="EzxVzveiI16b7jW3P2lI-44" style="edgeStyle=orthogonalEdgeStyle;rounded=1;orthogonalLoop=1;jettySize=auto;html=1;entryX=0;entryY=0.5;entryDx=0;entryDy=0;" parent="1" source="EzxVzveiI16b7jW3P2lI-9" target="EzxVzveiI16b7jW3P2lI-4" edge="1">
          <mxGeometry relative="1" as="geometry">
            <Array as="points">
              <mxPoint x="20" y="620" />
              <mxPoint x="20" y="230" />
            </Array>
          </mxGeometry>
        </mxCell>
        <mxCell id="EzxVzveiI16b7jW3P2lI-9" value="서버에만 있는 파일 또는&lt;br&gt;&amp;nbsp;서버에 있는 최신 파일을 &lt;br&gt;클라이언트에게 송신" style="rounded=1;whiteSpace=wrap;html=1;" parent="1" vertex="1">
          <mxGeometry x="55" y="590" width="170" height="60" as="geometry" />
        </mxCell>
        <mxCell id="EzxVzveiI16b7jW3P2lI-24" style="edgeStyle=orthogonalEdgeStyle;rounded=0;orthogonalLoop=1;jettySize=auto;html=1;entryX=0.5;entryY=0;entryDx=0;entryDy=0;" parent="1" source="EzxVzveiI16b7jW3P2lI-13" target="EzxVzveiI16b7jW3P2lI-15" edge="1">
          <mxGeometry relative="1" as="geometry" />
        </mxCell>
        <mxCell id="EzxVzveiI16b7jW3P2lI-31" style="edgeStyle=orthogonalEdgeStyle;rounded=0;orthogonalLoop=1;jettySize=auto;html=1;entryX=0;entryY=0.5;entryDx=0;entryDy=0;" parent="1" source="EzxVzveiI16b7jW3P2lI-13" target="EzxVzveiI16b7jW3P2lI-28" edge="1">
          <mxGeometry relative="1" as="geometry" />
        </mxCell>
        <mxCell id="EzxVzveiI16b7jW3P2lI-13" value="추가 요청" style="rhombus;whiteSpace=wrap;html=1;" parent="1" vertex="1">
          <mxGeometry x="320" y="640" width="150" height="60" as="geometry" />
        </mxCell>
        <mxCell id="EzxVzveiI16b7jW3P2lI-25" style="edgeStyle=orthogonalEdgeStyle;rounded=0;orthogonalLoop=1;jettySize=auto;html=1;entryX=0.5;entryY=0;entryDx=0;entryDy=0;" parent="1" source="EzxVzveiI16b7jW3P2lI-15" target="EzxVzveiI16b7jW3P2lI-16" edge="1">
          <mxGeometry relative="1" as="geometry" />
        </mxCell>
        <mxCell id="EzxVzveiI16b7jW3P2lI-32" style="edgeStyle=orthogonalEdgeStyle;rounded=0;orthogonalLoop=1;jettySize=auto;html=1;entryX=0;entryY=0.5;entryDx=0;entryDy=0;" parent="1" source="EzxVzveiI16b7jW3P2lI-15" target="EzxVzveiI16b7jW3P2lI-29" edge="1">
          <mxGeometry relative="1" as="geometry" />
        </mxCell>
        <mxCell id="EzxVzveiI16b7jW3P2lI-15" value="변경 요청" style="rhombus;whiteSpace=wrap;html=1;" parent="1" vertex="1">
          <mxGeometry x="320" y="730" width="150" height="60" as="geometry" />
        </mxCell>
        <mxCell id="EzxVzveiI16b7jW3P2lI-33" style="edgeStyle=orthogonalEdgeStyle;rounded=0;orthogonalLoop=1;jettySize=auto;html=1;entryX=0;entryY=0.5;entryDx=0;entryDy=0;" parent="1" source="EzxVzveiI16b7jW3P2lI-16" target="EzxVzveiI16b7jW3P2lI-30" edge="1">
          <mxGeometry relative="1" as="geometry" />
        </mxCell>
        <mxCell id="EzxVzveiI16b7jW3P2lI-42" style="edgeStyle=orthogonalEdgeStyle;rounded=1;orthogonalLoop=1;jettySize=auto;html=1;entryX=1;entryY=0.5;entryDx=0;entryDy=0;" parent="1" source="EzxVzveiI16b7jW3P2lI-16" target="EzxVzveiI16b7jW3P2lI-8" edge="1">
          <mxGeometry relative="1" as="geometry">
            <Array as="points">
              <mxPoint x="395" y="910" />
              <mxPoint x="720" y="910" />
              <mxPoint x="720" y="570" />
            </Array>
          </mxGeometry>
        </mxCell>
        <mxCell id="EzxVzveiI16b7jW3P2lI-16" value="삭제 요청" style="rhombus;whiteSpace=wrap;html=1;" parent="1" vertex="1">
          <mxGeometry x="320" y="820" width="150" height="60" as="geometry" />
        </mxCell>
        <mxCell id="EzxVzveiI16b7jW3P2lI-39" style="edgeStyle=orthogonalEdgeStyle;rounded=1;orthogonalLoop=1;jettySize=auto;html=1;entryX=1;entryY=0.5;entryDx=0;entryDy=0;" parent="1" source="EzxVzveiI16b7jW3P2lI-28" target="EzxVzveiI16b7jW3P2lI-8" edge="1">
          <mxGeometry relative="1" as="geometry">
            <Array as="points">
              <mxPoint x="720" y="670" />
              <mxPoint x="720" y="570" />
            </Array>
          </mxGeometry>
        </mxCell>
        <mxCell id="EzxVzveiI16b7jW3P2lI-28" value="클라이언트로 부터&lt;br&gt;데이터 받아서 추가" style="rounded=1;whiteSpace=wrap;html=1;" parent="1" vertex="1">
          <mxGeometry x="520" y="640" width="170" height="60" as="geometry" />
        </mxCell>
        <mxCell id="EzxVzveiI16b7jW3P2lI-40" style="edgeStyle=orthogonalEdgeStyle;rounded=1;orthogonalLoop=1;jettySize=auto;html=1;entryX=1;entryY=0.5;entryDx=0;entryDy=0;" parent="1" source="EzxVzveiI16b7jW3P2lI-29" target="EzxVzveiI16b7jW3P2lI-8" edge="1">
          <mxGeometry relative="1" as="geometry">
            <Array as="points">
              <mxPoint x="720" y="760" />
              <mxPoint x="720" y="570" />
            </Array>
          </mxGeometry>
        </mxCell>
        <mxCell id="EzxVzveiI16b7jW3P2lI-29" value="기존 파일 삭제 후&lt;br&gt;클라이언트로 부터&lt;br&gt;데이터 받아서 추가" style="rounded=1;whiteSpace=wrap;html=1;" parent="1" vertex="1">
          <mxGeometry x="520" y="730" width="170" height="60" as="geometry" />
        </mxCell>
        <mxCell id="EzxVzveiI16b7jW3P2lI-41" style="edgeStyle=orthogonalEdgeStyle;rounded=1;orthogonalLoop=1;jettySize=auto;html=1;entryX=1;entryY=0.5;entryDx=0;entryDy=0;" parent="1" source="EzxVzveiI16b7jW3P2lI-30" target="EzxVzveiI16b7jW3P2lI-8" edge="1">
          <mxGeometry relative="1" as="geometry">
            <Array as="points">
              <mxPoint x="720" y="850" />
              <mxPoint x="720" y="570" />
            </Array>
          </mxGeometry>
        </mxCell>
        <mxCell id="EzxVzveiI16b7jW3P2lI-30" value="클라이언트로 부터&lt;br&gt;정보 받아서 파일 삭제" style="rounded=1;whiteSpace=wrap;html=1;" parent="1" vertex="1">
          <mxGeometry x="520" y="820" width="170" height="60" as="geometry" />
        </mxCell>
        <mxCell id="EzxVzveiI16b7jW3P2lI-34" value="Yes" style="text;html=1;strokeColor=none;fillColor=none;align=center;verticalAlign=middle;whiteSpace=wrap;rounded=0;" parent="1" vertex="1">
          <mxGeometry x="475" y="649" width="30" height="21" as="geometry" />
        </mxCell>
        <mxCell id="EzxVzveiI16b7jW3P2lI-35" value="Yes" style="text;html=1;strokeColor=none;fillColor=none;align=center;verticalAlign=middle;whiteSpace=wrap;rounded=0;" parent="1" vertex="1">
          <mxGeometry x="475" y="740" width="30" height="21" as="geometry" />
        </mxCell>
        <mxCell id="EzxVzveiI16b7jW3P2lI-36" value="Yes" style="text;html=1;strokeColor=none;fillColor=none;align=center;verticalAlign=middle;whiteSpace=wrap;rounded=0;" parent="1" vertex="1">
          <mxGeometry x="475" y="830" width="30" height="21" as="geometry" />
        </mxCell>
        <mxCell id="EzxVzveiI16b7jW3P2lI-37" value="No" style="text;html=1;strokeColor=none;fillColor=none;align=center;verticalAlign=middle;whiteSpace=wrap;rounded=0;" parent="1" vertex="1">
          <mxGeometry x="365" y="702" width="30" height="21" as="geometry" />
        </mxCell>
        <mxCell id="EzxVzveiI16b7jW3P2lI-38" value="No" style="text;html=1;strokeColor=none;fillColor=none;align=center;verticalAlign=middle;whiteSpace=wrap;rounded=0;" parent="1" vertex="1">
          <mxGeometry x="365" y="792" width="30" height="21" as="geometry" />
        </mxCell>
        <mxCell id="EzxVzveiI16b7jW3P2lI-43" value="No" style="text;html=1;strokeColor=none;fillColor=none;align=center;verticalAlign=middle;whiteSpace=wrap;rounded=0;" parent="1" vertex="1">
          <mxGeometry x="365" y="880" width="30" height="21" as="geometry" />
        </mxCell>
        <mxCell id="EzxVzveiI16b7jW3P2lI-71" style="edgeStyle=orthogonalEdgeStyle;rounded=1;orthogonalLoop=1;jettySize=auto;html=1;entryX=0.5;entryY=0;entryDx=0;entryDy=0;" parent="1" source="EzxVzveiI16b7jW3P2lI-48" target="EzxVzveiI16b7jW3P2lI-49" edge="1">
          <mxGeometry relative="1" as="geometry" />
        </mxCell>
        <mxCell id="EzxVzveiI16b7jW3P2lI-48" value="서버에 연결 요청" style="rounded=1;whiteSpace=wrap;html=1;" parent="1" vertex="1">
          <mxGeometry x="935" y="200" width="170" height="60" as="geometry" />
        </mxCell>
        <mxCell id="EzxVzveiI16b7jW3P2lI-72" style="edgeStyle=orthogonalEdgeStyle;rounded=1;orthogonalLoop=1;jettySize=auto;html=1;entryX=0.5;entryY=0;entryDx=0;entryDy=0;" parent="1" source="EzxVzveiI16b7jW3P2lI-49" target="EzxVzveiI16b7jW3P2lI-50" edge="1">
          <mxGeometry relative="1" as="geometry" />
        </mxCell>
        <mxCell id="EzxVzveiI16b7jW3P2lI-49" value="~/sync 디렉토리&lt;br&gt;&amp;nbsp;하위 파일들 탐색 후&lt;br&gt;&amp;nbsp;파일정보를 Map에 저장" style="rounded=1;whiteSpace=wrap;html=1;" parent="1" vertex="1">
          <mxGeometry x="935" y="300" width="170" height="60" as="geometry" />
        </mxCell>
        <mxCell id="EzxVzveiI16b7jW3P2lI-73" style="edgeStyle=orthogonalEdgeStyle;rounded=1;orthogonalLoop=1;jettySize=auto;html=1;" parent="1" source="EzxVzveiI16b7jW3P2lI-50" target="EzxVzveiI16b7jW3P2lI-51" edge="1">
          <mxGeometry relative="1" as="geometry" />
        </mxCell>
        <mxCell id="EzxVzveiI16b7jW3P2lI-50" value="서버에 백업되어 있는&lt;br&gt;&amp;nbsp;파일들의 정보를 수신" style="rounded=1;whiteSpace=wrap;html=1;" parent="1" vertex="1">
          <mxGeometry x="935" y="390" width="170" height="60" as="geometry" />
        </mxCell>
        <mxCell id="EzxVzveiI16b7jW3P2lI-74" style="edgeStyle=orthogonalEdgeStyle;rounded=1;orthogonalLoop=1;jettySize=auto;html=1;entryX=0.5;entryY=0;entryDx=0;entryDy=0;" parent="1" source="EzxVzveiI16b7jW3P2lI-51" target="EzxVzveiI16b7jW3P2lI-60" edge="1">
          <mxGeometry relative="1" as="geometry" />
        </mxCell>
        <mxCell id="EzxVzveiI16b7jW3P2lI-51" value="클라이언트&amp;nbsp;파일들의 &lt;br&gt;정보를 송신" style="rounded=1;whiteSpace=wrap;html=1;" parent="1" vertex="1">
          <mxGeometry x="935" y="490" width="170" height="60" as="geometry" />
        </mxCell>
        <mxCell id="EzxVzveiI16b7jW3P2lI-75" style="edgeStyle=orthogonalEdgeStyle;rounded=1;orthogonalLoop=1;jettySize=auto;html=1;entryX=0.5;entryY=0;entryDx=0;entryDy=0;" parent="1" source="EzxVzveiI16b7jW3P2lI-60" target="EzxVzveiI16b7jW3P2lI-62" edge="1">
          <mxGeometry relative="1" as="geometry" />
        </mxCell>
        <mxCell id="EzxVzveiI16b7jW3P2lI-95" style="edgeStyle=orthogonalEdgeStyle;rounded=1;orthogonalLoop=1;jettySize=auto;html=1;entryX=0;entryY=0.5;entryDx=0;entryDy=0;" parent="1" source="EzxVzveiI16b7jW3P2lI-60" target="EzxVzveiI16b7jW3P2lI-76" edge="1">
          <mxGeometry relative="1" as="geometry">
            <Array as="points">
              <mxPoint x="1020" y="660" />
              <mxPoint x="1143" y="660" />
            </Array>
          </mxGeometry>
        </mxCell>
        <mxCell id="EzxVzveiI16b7jW3P2lI-60" value="클라이언에만 있는 파일 또는&amp;nbsp;&lt;br&gt;클라이언트에 있는 최신파일을&amp;nbsp;&lt;br&gt;서버에게 송신" style="rounded=1;whiteSpace=wrap;html=1;" parent="1" vertex="1">
          <mxGeometry x="935" y="580" width="170" height="60" as="geometry" />
        </mxCell>
        <mxCell id="EzxVzveiI16b7jW3P2lI-68" style="edgeStyle=orthogonalEdgeStyle;rounded=1;orthogonalLoop=1;jettySize=auto;html=1;entryX=0.5;entryY=0;entryDx=0;entryDy=0;" parent="1" source="EzxVzveiI16b7jW3P2lI-62" target="EzxVzveiI16b7jW3P2lI-63" edge="1">
          <mxGeometry relative="1" as="geometry" />
        </mxCell>
        <mxCell id="EzxVzveiI16b7jW3P2lI-62" value="클라이언트의 ~/sync 디렉토리에 파일의 추가, 변경, 삭제&lt;br&gt;모니터링" style="rounded=1;whiteSpace=wrap;html=1;" parent="1" vertex="1">
          <mxGeometry x="935" y="780" width="170" height="60" as="geometry" />
        </mxCell>
        <mxCell id="EzxVzveiI16b7jW3P2lI-69" style="edgeStyle=orthogonalEdgeStyle;rounded=1;orthogonalLoop=1;jettySize=auto;html=1;entryX=0.5;entryY=0;entryDx=0;entryDy=0;" parent="1" source="EzxVzveiI16b7jW3P2lI-63" target="EzxVzveiI16b7jW3P2lI-64" edge="1">
          <mxGeometry relative="1" as="geometry" />
        </mxCell>
        <mxCell id="EzxVzveiI16b7jW3P2lI-63" value="5초 sleep" style="rounded=1;whiteSpace=wrap;html=1;" parent="1" vertex="1">
          <mxGeometry x="970" y="866" width="100" height="40" as="geometry" />
        </mxCell>
        <mxCell id="EzxVzveiI16b7jW3P2lI-70" style="edgeStyle=orthogonalEdgeStyle;rounded=1;orthogonalLoop=1;jettySize=auto;html=1;entryX=0.5;entryY=0;entryDx=0;entryDy=0;" parent="1" source="EzxVzveiI16b7jW3P2lI-64" target="EzxVzveiI16b7jW3P2lI-65" edge="1">
          <mxGeometry relative="1" as="geometry" />
        </mxCell>
        <mxCell id="EzxVzveiI16b7jW3P2lI-64" value="~/sync 디렉토리&lt;br&gt;&amp;nbsp;하위 파일들 탐색 후&lt;br&gt;&amp;nbsp;파일정보를 Map에 저장" style="rounded=1;whiteSpace=wrap;html=1;" parent="1" vertex="1">
          <mxGeometry x="935" y="930" width="170" height="60" as="geometry" />
        </mxCell>
        <mxCell id="EzxVzveiI16b7jW3P2lI-67" style="edgeStyle=orthogonalEdgeStyle;rounded=1;orthogonalLoop=1;jettySize=auto;html=1;entryX=0;entryY=0.5;entryDx=0;entryDy=0;" parent="1" source="EzxVzveiI16b7jW3P2lI-65" target="EzxVzveiI16b7jW3P2lI-62" edge="1">
          <mxGeometry relative="1" as="geometry">
            <Array as="points">
              <mxPoint x="910" y="1050.0000000000002" />
              <mxPoint x="910" y="810" />
            </Array>
          </mxGeometry>
        </mxCell>
        <mxCell id="EzxVzveiI16b7jW3P2lI-65" value="이전 정보와 비교해서&lt;br&gt;삭제, 추가, 변경에 대한 정보를&lt;br&gt;서버에 송신" style="rounded=1;whiteSpace=wrap;html=1;" parent="1" vertex="1">
          <mxGeometry x="935" y="1020" width="170" height="60" as="geometry" />
        </mxCell>
        <mxCell id="EzxVzveiI16b7jW3P2lI-100" style="edgeStyle=orthogonalEdgeStyle;rounded=1;orthogonalLoop=1;jettySize=auto;html=1;entryX=0.5;entryY=0;entryDx=0;entryDy=0;" parent="1" source="EzxVzveiI16b7jW3P2lI-76" target="EzxVzveiI16b7jW3P2lI-99" edge="1">
          <mxGeometry relative="1" as="geometry" />
        </mxCell>
        <mxCell id="EzxVzveiI16b7jW3P2lI-76" value="서버로 부터&lt;br&gt;추가, 변경, 삭제&lt;br&gt;요청 감지" style="rounded=1;whiteSpace=wrap;html=1;" parent="1" vertex="1">
          <mxGeometry x="1180" y="629.5" width="170" height="60" as="geometry" />
        </mxCell>
        <mxCell id="EzxVzveiI16b7jW3P2lI-77" style="edgeStyle=orthogonalEdgeStyle;rounded=0;orthogonalLoop=1;jettySize=auto;html=1;entryX=0.5;entryY=0;entryDx=0;entryDy=0;" parent="1" source="EzxVzveiI16b7jW3P2lI-79" target="EzxVzveiI16b7jW3P2lI-82" edge="1">
          <mxGeometry relative="1" as="geometry" />
        </mxCell>
        <mxCell id="EzxVzveiI16b7jW3P2lI-78" style="edgeStyle=orthogonalEdgeStyle;rounded=0;orthogonalLoop=1;jettySize=auto;html=1;entryX=0;entryY=0.5;entryDx=0;entryDy=0;" parent="1" source="EzxVzveiI16b7jW3P2lI-79" target="EzxVzveiI16b7jW3P2lI-85" edge="1">
          <mxGeometry relative="1" as="geometry" />
        </mxCell>
        <mxCell id="EzxVzveiI16b7jW3P2lI-79" value="추가 요청" style="rhombus;whiteSpace=wrap;html=1;" parent="1" vertex="1">
          <mxGeometry x="1190" y="810" width="150" height="60" as="geometry" />
        </mxCell>
        <mxCell id="EzxVzveiI16b7jW3P2lI-80" style="edgeStyle=orthogonalEdgeStyle;rounded=0;orthogonalLoop=1;jettySize=auto;html=1;entryX=0.5;entryY=0;entryDx=0;entryDy=0;" parent="1" source="EzxVzveiI16b7jW3P2lI-82" target="EzxVzveiI16b7jW3P2lI-84" edge="1">
          <mxGeometry relative="1" as="geometry" />
        </mxCell>
        <mxCell id="EzxVzveiI16b7jW3P2lI-81" style="edgeStyle=orthogonalEdgeStyle;rounded=0;orthogonalLoop=1;jettySize=auto;html=1;entryX=0;entryY=0.5;entryDx=0;entryDy=0;" parent="1" source="EzxVzveiI16b7jW3P2lI-82" target="EzxVzveiI16b7jW3P2lI-86" edge="1">
          <mxGeometry relative="1" as="geometry" />
        </mxCell>
        <mxCell id="EzxVzveiI16b7jW3P2lI-82" value="변경 요청" style="rhombus;whiteSpace=wrap;html=1;" parent="1" vertex="1">
          <mxGeometry x="1190" y="900" width="150" height="60" as="geometry" />
        </mxCell>
        <mxCell id="EzxVzveiI16b7jW3P2lI-83" style="edgeStyle=orthogonalEdgeStyle;rounded=0;orthogonalLoop=1;jettySize=auto;html=1;entryX=0;entryY=0.5;entryDx=0;entryDy=0;" parent="1" source="EzxVzveiI16b7jW3P2lI-84" target="EzxVzveiI16b7jW3P2lI-87" edge="1">
          <mxGeometry relative="1" as="geometry" />
        </mxCell>
        <mxCell id="EzxVzveiI16b7jW3P2lI-84" value="삭제 요청" style="rhombus;whiteSpace=wrap;html=1;" parent="1" vertex="1">
          <mxGeometry x="1190" y="990" width="150" height="60" as="geometry" />
        </mxCell>
        <mxCell id="EzxVzveiI16b7jW3P2lI-96" style="edgeStyle=orthogonalEdgeStyle;rounded=1;orthogonalLoop=1;jettySize=auto;html=1;entryX=1;entryY=0.5;entryDx=0;entryDy=0;" parent="1" source="EzxVzveiI16b7jW3P2lI-85" target="EzxVzveiI16b7jW3P2lI-76" edge="1">
          <mxGeometry relative="1" as="geometry">
            <Array as="points">
              <mxPoint x="1600" y="840" />
              <mxPoint x="1600" y="659" />
            </Array>
          </mxGeometry>
        </mxCell>
        <mxCell id="EzxVzveiI16b7jW3P2lI-85" value="클라이언트로 부터&lt;br&gt;데이터 받아서 추가" style="rounded=1;whiteSpace=wrap;html=1;" parent="1" vertex="1">
          <mxGeometry x="1400" y="810" width="170" height="60" as="geometry" />
        </mxCell>
        <mxCell id="EzxVzveiI16b7jW3P2lI-97" style="edgeStyle=orthogonalEdgeStyle;rounded=1;orthogonalLoop=1;jettySize=auto;html=1;entryX=1;entryY=0.5;entryDx=0;entryDy=0;" parent="1" source="EzxVzveiI16b7jW3P2lI-86" target="EzxVzveiI16b7jW3P2lI-76" edge="1">
          <mxGeometry relative="1" as="geometry">
            <Array as="points">
              <mxPoint x="1600" y="930" />
              <mxPoint x="1600" y="659" />
            </Array>
          </mxGeometry>
        </mxCell>
        <mxCell id="EzxVzveiI16b7jW3P2lI-86" value="기존 파일 삭제 후&lt;br&gt;클라이언트로 부터&lt;br&gt;데이터 받아서 추가" style="rounded=1;whiteSpace=wrap;html=1;" parent="1" vertex="1">
          <mxGeometry x="1400" y="900" width="170" height="60" as="geometry" />
        </mxCell>
        <mxCell id="EzxVzveiI16b7jW3P2lI-98" style="edgeStyle=orthogonalEdgeStyle;rounded=1;orthogonalLoop=1;jettySize=auto;html=1;entryX=1;entryY=0.5;entryDx=0;entryDy=0;" parent="1" source="EzxVzveiI16b7jW3P2lI-87" target="EzxVzveiI16b7jW3P2lI-76" edge="1">
          <mxGeometry relative="1" as="geometry">
            <Array as="points">
              <mxPoint x="1600" y="1020" />
              <mxPoint x="1600" y="659" />
            </Array>
          </mxGeometry>
        </mxCell>
        <mxCell id="EzxVzveiI16b7jW3P2lI-87" value="클라이언트로 부터&lt;br&gt;정보 받아서 파일 삭제" style="rounded=1;whiteSpace=wrap;html=1;" parent="1" vertex="1">
          <mxGeometry x="1400" y="990" width="170" height="60" as="geometry" />
        </mxCell>
        <mxCell id="EzxVzveiI16b7jW3P2lI-88" value="Yes" style="text;html=1;strokeColor=none;fillColor=none;align=center;verticalAlign=middle;whiteSpace=wrap;rounded=0;" parent="1" vertex="1">
          <mxGeometry x="1355" y="819" width="30" height="21" as="geometry" />
        </mxCell>
        <mxCell id="EzxVzveiI16b7jW3P2lI-89" value="Yes" style="text;html=1;strokeColor=none;fillColor=none;align=center;verticalAlign=middle;whiteSpace=wrap;rounded=0;" parent="1" vertex="1">
          <mxGeometry x="1355" y="910" width="30" height="21" as="geometry" />
        </mxCell>
        <mxCell id="EzxVzveiI16b7jW3P2lI-90" value="Yes" style="text;html=1;strokeColor=none;fillColor=none;align=center;verticalAlign=middle;whiteSpace=wrap;rounded=0;" parent="1" vertex="1">
          <mxGeometry x="1355" y="1000" width="30" height="21" as="geometry" />
        </mxCell>
        <mxCell id="EzxVzveiI16b7jW3P2lI-91" value="No" style="text;html=1;strokeColor=none;fillColor=none;align=center;verticalAlign=middle;whiteSpace=wrap;rounded=0;" parent="1" vertex="1">
          <mxGeometry x="1233" y="871" width="32.86" height="23" as="geometry" />
        </mxCell>
        <mxCell id="EzxVzveiI16b7jW3P2lI-92" value="No" style="text;html=1;strokeColor=none;fillColor=none;align=center;verticalAlign=middle;whiteSpace=wrap;rounded=0;" parent="1" vertex="1">
          <mxGeometry x="1235" y="962" width="30" height="21" as="geometry" />
        </mxCell>
        <mxCell id="EzxVzveiI16b7jW3P2lI-93" value="No" style="text;html=1;strokeColor=none;fillColor=none;align=center;verticalAlign=middle;whiteSpace=wrap;rounded=0;" parent="1" vertex="1">
          <mxGeometry x="1234" y="1050" width="30" height="21" as="geometry" />
        </mxCell>
        <mxCell id="EzxVzveiI16b7jW3P2lI-101" style="edgeStyle=orthogonalEdgeStyle;rounded=1;orthogonalLoop=1;jettySize=auto;html=1;entryX=0.5;entryY=0;entryDx=0;entryDy=0;" parent="1" source="EzxVzveiI16b7jW3P2lI-99" target="EzxVzveiI16b7jW3P2lI-79" edge="1">
          <mxGeometry relative="1" as="geometry" />
        </mxCell>
        <mxCell id="EzxVzveiI16b7jW3P2lI-103" style="edgeStyle=orthogonalEdgeStyle;rounded=1;orthogonalLoop=1;jettySize=auto;html=1;entryX=0.5;entryY=0;entryDx=0;entryDy=0;" parent="1" source="EzxVzveiI16b7jW3P2lI-99" target="EzxVzveiI16b7jW3P2lI-62" edge="1">
          <mxGeometry relative="1" as="geometry" />
        </mxCell>
        <mxCell id="EzxVzveiI16b7jW3P2lI-99" value="END" style="rhombus;whiteSpace=wrap;html=1;" parent="1" vertex="1">
          <mxGeometry x="1190" y="720.5" width="150" height="60" as="geometry" />
        </mxCell>
        <mxCell id="EzxVzveiI16b7jW3P2lI-102" value="No" style="text;html=1;strokeColor=none;fillColor=none;align=center;verticalAlign=middle;whiteSpace=wrap;rounded=0;" parent="1" vertex="1">
          <mxGeometry x="1233" y="780" width="32.86" height="23" as="geometry" />
        </mxCell>
        <mxCell id="EzxVzveiI16b7jW3P2lI-104" value="Yes" style="text;html=1;strokeColor=none;fillColor=none;align=center;verticalAlign=middle;whiteSpace=wrap;rounded=0;" parent="1" vertex="1">
          <mxGeometry x="1130" y="723" width="30" height="21" as="geometry" />
        </mxCell>
        <mxCell id="EzxVzveiI16b7jW3P2lI-109" style="edgeStyle=orthogonalEdgeStyle;rounded=1;orthogonalLoop=1;jettySize=auto;html=1;entryX=0;entryY=0.5;entryDx=0;entryDy=0;dashed=1;" parent="1" source="EzxVzveiI16b7jW3P2lI-105" target="EzxVzveiI16b7jW3P2lI-4" edge="1">
          <mxGeometry relative="1" as="geometry">
            <Array as="points">
              <mxPoint x="20" y="701" />
              <mxPoint x="20" y="230" />
            </Array>
          </mxGeometry>
        </mxCell>
        <mxCell id="EzxVzveiI16b7jW3P2lI-105" value="클라이언트 종료" style="rounded=1;whiteSpace=wrap;html=1;arcSize=50;" parent="1" vertex="1">
          <mxGeometry x="130" y="680.5" width="110" height="40" as="geometry" />
        </mxCell>
      </root>
    </mxGraphModel>
  </diagram>
</mxfile>
